<svg xmlns="http://www.w3.org/2000/svg" viewBox="0 0 500 500"><g id="freepik--background-simple--inject-8"><path d="M331.63,59.9c37.2,12.43,75.14,38.42,80.92,75.73C421.28,192,471.81,198,448.29,299.52a209.84,209.84,0,0,1-15.39,44,197.21,197.21,0,0,1-11.58,20.75C383.16,424,317.54,455.8,254.37,459.32c-83.08,4.65-113-45.49-129.95-78.12s-98.77-71-76.54-170.86a204,204,0,0,1,15.79-45.22c16.5-33.73,45.58-68.21,82.56-88.56q4.17-2.3,8.46-4.39C210.65,44.85,280.92,42.94,331.63,59.9Z" style="fill:#92E3A9"></path><path d="M331.63,59.9c37.2,12.43,75.14,38.42,80.92,75.73C421.28,192,471.81,198,448.29,299.52a209.84,209.84,0,0,1-15.39,44,197.21,197.21,0,0,1-11.58,20.75C383.16,424,317.54,455.8,254.37,459.32c-83.08,4.65-113-45.49-129.95-78.12s-98.77-71-76.54-170.86a204,204,0,0,1,15.79-45.22c16.5-33.73,45.58-68.21,82.56-88.56q4.17-2.3,8.46-4.39C210.65,44.85,280.92,42.94,331.63,59.9Z" style="fill:#fff;opacity:0.7000000000000001"></path></g><g id="freepik--Floor--inject-8"><path d="M251.88,468.44c-105.78,0-188.65-12.52-188.65-28.51s82.87-28.51,188.65-28.51,188.66,12.52,188.66,28.51S357.67,468.44,251.88,468.44Zm0-56c-50.23,0-97.45,2.91-133,8.2-34.75,5.17-54.68,12.21-54.68,19.31s19.93,14.14,54.68,19.31c35.52,5.29,82.74,8.2,133,8.2s97.46-2.91,133-8.2c34.75-5.17,54.68-12.21,54.68-19.31s-19.93-14.14-54.68-19.31C349.34,415.33,302.12,412.42,251.88,412.42Z" style="fill:#263238"></path><path d="M251.88,463.2c-86,0-153.46-10.22-153.46-23.27s67.41-23.27,153.46-23.27,153.47,10.22,153.47,23.27S337.94,463.2,251.88,463.2Zm0-45.54c-82.64,0-152.46,10.2-152.46,22.27s69.82,22.27,152.46,22.27S404.35,452,404.35,439.93,334.53,417.66,251.88,417.66Z" style="fill:#263238"></path></g><g id="freepik--Earth--inject-8"><path d="M331.27,301.35a117.05,117.05,0,1,1,32.79-4.72A117.21,117.21,0,0,1,331.27,301.35Zm-.1-233a116,116,0,1,0,111.39,83.46A115.94,115.94,0,0,0,331.17,68.32Z" style="fill:#263238"></path><path d="M331.34,150.54l-9.39-.9-.5-1.71,3.89-3.1-2.85-4.52-7.84-.55-4.94-3.7,2.13-2.85,12.46,1.73,4.3,3.92,5.46.47,2.19,5.33-1.11,3.83Zm-8.62-1.83,8.41.81,3.16-1.71.9-3.09-1.82-4.45-5.19-.45-4.32-3.93-11.57-1.61-1.18,1.58,3.9,2.92,8.05.57,3.6,5.7-4.06,3.25Z" style="fill:#263238"></path><path d="M381.24,290.12,380,287.89l-1.08-3.66-4-.53-10.62-6-6.65-.7-4.1-5.58,1.42-6.38c1-2.34,2.25-5.88,2-6.68-.29-1-.63-2.66-.8-3.54l-5.37,1.82-6.38.11-5.87-1.62-4.42-3.31-5.23-2.64-14.85.32-11.16-4.09-7-4.73-2.05-7L288.71,226l-6.23-8.1-1.42.78,2.75,4.93,3.08,2.61,3,4.51-5.2.8-6.11-7.71-5.75-10.66-4.09-19.95,3.62-15.14-3.08-8.55.51-9.1-2.63-9-6.36-3.91-10.46,1.3-1.8-3.59,6.21-2.11-.26-4.8.33-.14a43.21,43.21,0,0,0,5.94-2.85,41.7,41.7,0,0,0,3.3-3.23l4.44-5.17,8.1.11,2.68,7.17,8.58,5.14,10.28,3.85-1.63-2.88-7.28-3.75,4.32-4,4.41.53,2.81.78,3.92,8.64,2-1-.18-4.68,2.73-.39,2.07,4,2.24,1.62,3.14-1.24,1.5,7.34-6.09,7.85.57,6.59,3,2,6.63,1.07.29,4,5.57,2.29-.09-8.27-1.82-2.41-1.75-7.95.31-1.71,5.1-.2,4.1,2.24,6.63-.79,8.17,2.65,8.41,5.28,6.81,2.37,3.08,3.53-4.15,2.61-3.44-1.89-4.92-4.32-1.2,2.55L344.89,171l-.74,2.72,3.26-1.83,3.25-1,1.4,1.87,4.39-1.59.49,3-5.24,6.06-2.29,1.2-1.69,7.06-3.13,4.53,1.56,10.29-8.57,7.11.87,4.77L341,218l2.49,6.39-2.52,1.14-7.29-6.93-3.34,0-3.22,3.49-3.5,1-2.69-1.24-7.37,1.61-1.7,8.09,3.3,5.64,5.08,3.41,3.89-1.4.29-2.93,4.1-1.87,3,2.42.88,5,1.23,1.77,5.05-1.48,5.59.6.31,8,7.89,2.25,4.49-3.52,4.68-4.86,3.05-.89,4.67-1.66,8.08-4.36,8.11-.66,8.26-2.41,11.52.69,9.36.95L428.16,228l4.8,1.59L429.53,245l.44,2.06-.11.17a116.58,116.58,0,0,1-48.21,42.66Zm-.34-2.57.74,1.27a115.64,115.64,0,0,0,47.27-41.92L428.5,245l0-.1,3.26-14.66-3.5-1.16-13.38,8.21-9.67-1-11.33-.68-8.24,2.4-8.05.64L369.76,243l-4.77,1.7-2.82.82-4.55,4.72-4.94,3.88-9.08-2.58-.31-7.91-4.53-.48-5.56,1.63-1.78-2.65-.83-4.75-2.25-1.8-3,1.37-.29,3-5,1.78-5.74-3.92-3.56-6.07,1.92-9.1,8.33-1.82,2.65,1.23,2.87-.84,3.34-3.62,4.18.06,7.08,6.73,1-.47-2.11-5.42-2.56-2.76-1-5.63,8.59-7.12-1.53-10.12,3.29-4.78,1.7-7.24,2.61-1.37,4.73-5.52-.22-1.37-4,1.42-1.43-1.91-2.53.74-5.2,2.95,1.48-5.42,8.56-5.39,1.64-3.48,5.88,5.15,2.78,1.52,2.66-1.68L363.42,164l-6.71-2.36-8.41-5.27-7.79-2.52-6.73.81-4.14-2.26-4,.16-.14.72,1.68,7.64,1.87,2.39.11,10.12-7.54-3.1-.28-3.87-6.16-1-3.44-2.35-.65-7.46,6-7.79L316,142.11l-2.54,1L310.54,141l-1.85-3.54-1.14.16.18,4.43-3.52,1.76-4.16-9.16-2.29-.64-3.87-.47L291,136.31l6.28,3.23,3.14,5.53-12.94-4.86-9-5.35L275.9,128l-6.95-.09-4.14,4.82a45.12,45.12,0,0,1-3.43,3.36,41.49,41.49,0,0,1-5.85,2.85l.26,4.85-5.85,2,1,1.93L261,146.46l7,4.29,2.79,9.55-.51,9.07L273.4,178l-3.64,15.21,4,19.66,5.61,10.38,5.7,7.18,3.08-.47-2.1-3.14L283,224.18l-3.28-5.89,3.05-1.68,6.77,8.81,5.22,7.88,2,6.73,6.63,4.49,10.81,3.94,14.92-.32,5.52,2.8,4.42,3.3,5.47,1.48,6.16-.11,6.23-2.14.11.57s.51,2.73.89,4-1.62,6.3-2,7.26l-1.29,5.86,3.56,4.85,6.52.72,10.62,6,4.41.53Z" style="fill:#263238"></path><path d="M405.44,133.39l-1.39-2.52-3-4.39-.22-3.82-.52-2.63L393,117.84l-2.57-8.77-7-2.51-4.68-7-4-2.61L371.7,91l-6.4-1.4-3.45,1.23,4.34,3.45-1.77,1.17,2.23-.36,9.55,3.71-2.67,1.56-.57,3.15-6.54,1.29-5.63-4.21L349.6,98l-6.82-5,7.69-4.67-.24-1.5-3.1-.46-.6,2.65-4.9.75-1.22-4.16-3.65-1.37L328,81.86c-.81.7-3.51,3-4.75,3.34a6.88,6.88,0,0,1-3.39-.18l-6,1.2-3.91,4.3-5.87,1.72-5-2.06a30.93,30.93,0,0,0-4.65,0,26.84,26.84,0,0,0-3.94,3.4l-.19.11-5.12,1.77.52,4.72-7.58,3.09-.92,3.74L270,109.65l.42,4.22-5,12.41-5.46,1.6.55-5.14-4.43.74-1.87-5.29,1.94-4,1.73-1.3-1.58-7.37,4.91-2.63,2.06-5.21L255.59,95l.69-.57a117,117,0,0,1,141.13-6.61l.12.09,2.35,5.52,4.46,3.33.9,3.09-2.84,3-1.1,1,2.13-.45.71,3.76-4.87.58,3.07,6.93,5.34,4.68,4.59,4.38-.51,3.57-.86,5.51ZM402,126.15l2.91,4.19,1.1,2,4-.45,1.18-7.8-4.21-4-5.53-4.91-3.67-8.27,5.16-.62-.32-1.7-4.93,1,4-3.45,2.41-2.55-.65-2.22-4.4-3.29-2.35-5.5A116,116,0,0,0,257.6,94.66l7,2.43-2.58,6.52-4.56,2.44,1.55,7.27L257,114.85l-1.65,3.4,1.45,4.11,4.9-.83-.53,5,3.56-1,4.69-11.73L269,109l7.39-2.74.93-3.72,7.34-3-.52-4.77,5.77-2c.89-.88,3.46-3.33,4.28-3.57a30.67,30.67,0,0,1,5.07,0l.16,0,4.75,2,5.27-1.54,3.94-4.33L319.88,84l.12,0a6.27,6.27,0,0,0,2.94.21c1-.29,3.64-2.49,4.57-3.31l.21-.18,9.35,2.6,4.16,1.56,1.11,3.8,3.37-.51.65-2.9,4.74.71.47,2.89-7,4.24,5.53,4,11.19,2.58,5.36,4,5.44-1.07.53-2.93L373.9,99l-7.36-2.87L360,97.19l4.5-3-4.66-3.71,5.41-1.94,7.14,1.56,3.24,6.07,4,2.67,4.55,6.86,7.16,2.57,2.56,8.74,7.29,2.2.65,3.3Z" style="fill:#263238"></path><path d="M438.21,173.35l-6.35-7.59-6.81-10.32-4.13-14.12-4.31-2.14-4.48-7.1,1.5-6.86-3.53-15.15,3.53.39-1.17-4-3.15-.21-2.08-3.84.09-4.69-.9-3.07,1.28,1.1a117.3,117.3,0,0,1,39,69.94l0,.2-.71,1-.6,6.24ZM426,155.09l6.67,10.07,6,7.17,5.89-.17.54-5.62.62-.87a116.32,116.32,0,0,0-37.4-68l-.08,4.55,1.69,3.12,3.3.21,1.78,6.1-3.61-.4,3.26,14-1.46,6.68,4.11,6.52,4.45,2.21.06.21Z" style="fill:#263238"></path><path d="M350.37,235.1l-4.31-2.81-9.35-.07,1.3-2.38,12.28.55,7.08-.8-1.3,4.48Zm-12-3.86,8,0,4.23,2.76,4.69-.86.71-2.44-5.67.64-11.73-.52Z" style="fill:#263238"></path><path d="M359.51,234.18l-1.95-2.6,5.9-3.72,1.65,1.59,3-1.23L367,232Zm-.5-2.33.89,1.18,6.3-1.84.35-1.25-1.66.69-1.56-1.51Z" style="fill:#263238"></path><path d="M331.2,295.13a109.56,109.56,0,0,1-16.29-1.21l.15-1a109.09,109.09,0,0,0,19,1.16l0,1Z" style="fill:#263238"></path><path d="M310.18,293.11c-3.3-.64-6.62-1.44-9.86-2.39l.28-1c3.21.94,6.5,1.74,9.78,2.37Z" style="fill:#263238"></path><path d="M296.22,289.44a110.84,110.84,0,0,1-73.33-128.33l1,.21a109.83,109.83,0,0,0,72.67,127.17Z" style="fill:#263238"></path><path d="M227.62,148l-.94-.33a112.2,112.2,0,0,1,9-19.36l.87.5A110.62,110.62,0,0,0,227.62,148Z" style="fill:#263238"></path></g><g id="freepik--Character--inject-8"><rect x="152.53" y="93.69" width="117.3" height="141.91" rx="10.14" transform="translate(-2.74 3.57) rotate(-0.96)" style="fill:#92E3A9"></rect><path d="M163.69,236.91a10.63,10.63,0,0,1-10.63-10.46L151,104.83A10.64,10.64,0,0,1,161.47,94l97-1.63a10.69,10.69,0,0,1,10.82,10.46l2,121.62a10.64,10.64,0,0,1-10.46,10.81l-97,1.63Zm95-143.53h-.16l-97,1.63a9.65,9.65,0,0,0-9.48,9.8l2.05,121.62a9.61,9.61,0,0,0,9.8,9.47l97-1.63a9.64,9.64,0,0,0,9.48-9.79l-2-121.62A9.66,9.66,0,0,0,258.66,93.38Z" style="fill:#263238"></path><rect x="150.97" y="93.78" width="108.69" height="141.91" rx="10.14" transform="matrix(1, -0.02, 0.02, 1, -2.74, 3.47)" style="fill:#92E3A9"></rect><path d="M162.13,236.93a10.63,10.63,0,0,1-10.63-10.46l-2.05-121.62A10.64,10.64,0,0,1,159.91,94l88.4-1.49A10.64,10.64,0,0,1,259.13,103l2,121.62a10.65,10.65,0,0,1-10.46,10.82l-88.4,1.48ZM248.5,93.55h-.17L159.93,95a9.65,9.65,0,0,0-9.48,9.8l2.05,121.62a9.63,9.63,0,0,0,9.8,9.47l88.4-1.48v0a9.65,9.65,0,0,0,9.47-9.8l-2-121.62a9.64,9.64,0,0,0-9.63-9.48Z" style="fill:#263238"></path><path d="M176,124.57a22.63,22.63,0,0,0-13.73,1.36c-7.3,3.14-34.66,23-40.77,29.14S97.66,175,97.7,177.64s17.16,17.48,18.1,17.46,13.25-7.75,16.63-8.75,24.2-9.62,24.2-9.62,4.32,53.14.88,89.29-3.54,48.29-1.84,57.28,2.85,21.42,2.85,21.42a218.81,218.81,0,0,0-1.09,27.4s.68,3.41,2.87,4.62,27.73,2,30.5.42,4.83-8.79,5.1-11.29-1.3-22.07-1.3-22.07l5.09-48.62s.91,17.1,3.22,24.84,4.77,24.5,4.77,24.5.81,29.85,2.39,31.07,10.59.76,24.58.21,15.25.06,15.81-3.69-1-21.76-1.68-25.79-.86-14.3-.86-14.3,1.91-34.26,3.09-56.68-1.5-52.25-1.5-52.25,13.54-46.28,12.54-68.35-6.36-27-12.65-30.9-17.21-5.94-17.21-5.94Z" style="fill:#92E3A9"></path><path d="M179.58,378.52c-8.29,0-18.16-.6-19.52-1.34-2.37-1.31-3.09-4.81-3.12-5A225,225,0,0,1,158,344.71c-.08-.88-1.21-12.74-2.84-21.32S153.42,303.74,157,266c3.19-33.48-.34-82.17-.82-88.51-3.58,1.48-20.56,8.46-23.62,9.37-1.88.55-6.74,3.34-10.65,5.57-4.39,2.52-5.64,3.2-6.11,3.2h0c-1.45,0-18.56-15.06-18.61-17.95,0-1.79,5.35-6.55,14.2-14.19,3.9-3.36,7.59-6.54,9.78-8.75,6.08-6.09,33.63-26.1,40.93-29.24a23.07,23.07,0,0,1,14-1.41l56.13-6.66h.08c.45.08,11.09,2.06,17.38,6,6.47,4,11.9,9.2,12.89,31.31,1,21.44-11.86,66.1-12.53,68.42.16,1.87,2.62,30.65,1.49,52.22-1.17,22.17-3.07,56.34-3.09,56.69,0,.06.18,10.23.85,14.18s2.26,22.13,1.68,26c-.54,3.6-1.92,3.65-10.91,3.93-1.54.05-3.32.1-5.37.18l-3.11.12c-14,.56-20.26.75-21.8-.43s-2.39-24.4-2.58-31.46c0-.11-2.48-16.75-4.75-24.37-1.47-4.94-2.37-13.52-2.84-19.22l-4.49,42.92c.06.7,1.57,19.56,1.3,22.07s-2.33,9.92-5.35,11.66C189.91,378.26,185.09,378.52,179.58,378.52Zm-21.65-6.41s.67,3.12,2.62,4.19,27.38,1.94,30,.43,4.59-8.4,4.86-10.91-1.29-21.78-1.31-22l5.1-48.71,1,0c0,.17.94,17.13,3.2,24.72s4.76,24.41,4.78,24.58c.31,11.25,1.19,29.49,2.23,30.77,1.29,1,9.61.66,21.12.2l3.11-.12c2.05-.08,3.83-.13,5.38-.18,9.18-.29,9.55-.4,10-3.08.55-3.66-1-21.77-1.67-25.64s-.86-13.95-.87-14.37,1.93-34.55,3.09-56.72S249,223.43,249,223.14V223l0-.09c.14-.46,13.5-46.45,12.52-68.19s-6.2-26.6-12.42-30.5c-5.87-3.68-16-5.67-17-5.85L176,125.08l-.09,0a22.41,22.41,0,0,0-13.4,1.34c-7.24,3.11-34.59,23-40.62,29-2.22,2.23-5.92,5.42-9.84,8.8-5.85,5.05-13.87,12-13.85,13.41,0,2.24,16,16.16,17.64,17,.54-.17,3.21-1.7,5.58-3.05,4.16-2.39,8.88-5.09,10.86-5.67,3.31-1,23.95-9.51,24.16-9.6l.64-.26,0,.68c0,.54,4.28,53.6.88,89.38-3.58,37.65-3.43,48.78-1.85,57.14,1.7,8.91,2.85,21.34,2.86,21.46v.11a222.49,222.49,0,0,0-1.09,27.33Z" style="fill:#263238"></path><path d="M206.72,270l-.74-.68c2.58-2.77,7.88-7.79,14.48-10.29,10.41-4,25-3.76,28.34-2.16l-.44.9c-2.86-1.37-17.18-1.73-27.55,2.2C214.41,262.4,209.23,267.31,206.72,270Z" style="fill:#263238"></path><path d="M198.7,293a95.31,95.31,0,0,1,.64-13.13,17.53,17.53,0,0,1,3.3-6.48l.81.58a16.75,16.75,0,0,0-3.12,6.06,96.84,96.84,0,0,0-.63,13Z" style="fill:#263238"></path><path d="M192.77,279.67c-2.77-4.6-7.23-10.87-12.7-14.59a82.91,82.91,0,0,0-20.52-9.62l.27-1a84,84,0,0,1,20.81,9.76c5.62,3.82,10.17,10.21,13,14.9Z" style="fill:#263238"></path><path d="M195.84,285.33s-.59-1.26-1.63-3.15l.88-.49c1.06,1.93,1.63,3.17,1.65,3.22Z" style="fill:#263238"></path><path d="M225.72,251.15l-.38-.93a30.2,30.2,0,0,1,10.1-2.46l.05,1A29,29,0,0,0,225.72,251.15Z" style="fill:#263238"></path><path d="M208.44,262.5l-.69-.73a69.87,69.87,0,0,1,14-9.84l.46.88A68.39,68.39,0,0,0,208.44,262.5Z" style="fill:#263238"></path><path d="M184.72,263.6a28.29,28.29,0,0,0-2.81-3.11l.69-.72a29.19,29.19,0,0,1,2.91,3.21Z" style="fill:#263238"></path><path d="M179.32,258.29a36.36,36.36,0,0,0-12.53-6.09l.22-1a36.89,36.89,0,0,1,12.92,6.28Z" style="fill:#263238"></path><path d="M226.22,338.89c-10.22,0-16.22-2.3-16.3-2.34l.37-.93c.11.05,11.29,4.32,29.26,1l.18,1A74.73,74.73,0,0,1,226.22,338.89Z" style="fill:#263238"></path><path d="M229.41,319.15c-.81,0-1.61,0-2.39-.1l.09-1a28,28,0,0,0,4,0l.06,1C230.58,319.14,230,319.15,229.41,319.15Z" style="fill:#263238"></path><path d="M233.62,318.85l-.14-1a37.5,37.5,0,0,0,13.92-5.05l.55.83A37.64,37.64,0,0,1,233.62,318.85Z" style="fill:#263238"></path><path d="M181.79,322.25l-1.37,0,0-1a51.31,51.31,0,0,0,6-.19l.09,1C185,322.18,183.4,322.25,181.79,322.25Z" style="fill:#263238"></path><path d="M177.28,322.06a66.72,66.72,0,0,1-21.79-5.69l.45-.9a65.23,65.23,0,0,0,21.42,5.6Z" style="fill:#263238"></path><path d="M170.9,343.65a29.26,29.26,0,0,1-3.68-.21l.13-1c7.58.95,17.61-1.6,22.91-3.2l.29.95C186,341.58,178,343.65,170.9,343.65Z" style="fill:#263238"></path><path d="M191.75,339.83l-.3-.95c1.28-.41,2-.68,2.05-.68l.34.94S193.07,339.41,191.75,339.83Z" style="fill:#263238"></path><path d="M168.54,349.75a22.66,22.66,0,0,1-5.11-.51l.24-1a26.18,26.18,0,0,0,12.38-.59l.28,1A27.59,27.59,0,0,1,168.54,349.75Z" style="fill:#263238"></path><path d="M210.59,228.79l-.07-1c2.63-.19,5.2-.44,7.64-.75l.12,1C215.82,228.34,213.23,228.59,210.59,228.79Z" style="fill:#263238"></path><path d="M195.6,229.32a250,250,0,0,1-31.52-2l.14-1a249.6,249.6,0,0,0,41.2,1.75l0,1C202.11,229.26,198.79,229.32,195.6,229.32Z" style="fill:#263238"></path><path d="M238.44,224.56l-.06-1c2.2-.14,4.13-.33,5.74-.55l.14,1C242.63,224.23,240.67,224.42,238.44,224.56Z" style="fill:#263238"></path><path d="M226.2,224.88c-11.13,0-21.95-.6-22.08-.61l0-1c.17,0,17.17,1,30.45.48l0,1C231.94,224.84,229.06,224.88,226.2,224.88Z" style="fill:#263238"></path><path d="M158.39,141.94l-.93-.38a18.43,18.43,0,0,1,2.91-4.95l.76.64A17.31,17.31,0,0,0,158.39,141.94Z" style="fill:#263238"></path><path d="M156.14,176.82c0-.18-3.2-18.51.08-31.42l1,.25c-3.23,12.69-.1,30.82-.06,31Z" style="fill:#263238"></path><path d="M128.48,184.05a23.65,23.65,0,0,0-.6-5l1-.23a24.33,24.33,0,0,1,.63,5.19Z" style="fill:#263238"></path><path d="M127.24,176.88a21,21,0,0,0-11.1-11.9l.35-.93a21.58,21.58,0,0,1,11.69,12.5Z" style="fill:#263238"></path><path d="M134.36,177.32c-.76-5.11-6.09-13.36-6.14-13.45l.84-.54c.22.34,5.49,8.52,6.29,13.84Z" style="fill:#263238"></path><path d="M154.65,167.18c0-.13-3.75-12.84-3.59-24.07l1,0c-.16,11.08,3.52,23.64,3.55,23.76Z" style="fill:#263238"></path><path d="M248.36,176.46c-13.65-2-15.91-4.62-16.12-4.91l.8-.6-.4.3.39-.31s2.24,2.56,15.48,4.54Z" style="fill:#263238"></path><ellipse cx="203.98" cy="120.39" rx="29.71" ry="11.76" transform="translate(-16.72 34.41) rotate(-9.27)" style="fill:#92E3A9"></ellipse><path d="M194.56,133.44a47.32,47.32,0,0,1-10.07-1c-6.11-1.33-9.78-3.89-10.32-7.21-1.1-6.78,11.13-14.23,27.84-17,7.89-1.29,15.52-1.28,21.47,0,6.11,1.34,9.78,3.9,10.32,7.21,1.1,6.79-11.13,14.24-27.84,17A71.3,71.3,0,0,1,194.56,133.44Zm18.85-25.11a69.51,69.51,0,0,0-11.24,1c-15.89,2.59-28,9.68-27,15.81.46,2.84,3.94,5.17,9.54,6.4,5.83,1.27,13.33,1.27,21.1,0,15.89-2.6,28-9.69,27-15.82-.46-2.84-3.94-5.17-9.54-6.39A46.71,46.71,0,0,0,213.41,108.33Z" style="fill:#263238"></path><ellipse cx="203.63" cy="118.23" rx="26.19" ry="8.44" transform="matrix(0.99, -0.16, 0.16, 0.99, -16.38, 34.33)" style="fill:#263238"></ellipse><path d="M193.18,128.07c-9,0-15.31-2-15.89-5.54-.81-5,10.13-10.71,24.9-13.12s27-.43,27.78,4.52h0c.81,4.95-10.13,10.71-24.9,13.12A73.74,73.74,0,0,1,193.18,128.07Zm20.87-18.69a73.41,73.41,0,0,0-11.7,1c-15.16,2.48-24.69,8.19-24.07,12s11.46,6.17,26.63,3.7,24.69-8.19,24.08-12h0C228.55,111.38,222.84,109.38,214.05,109.38Z" style="fill:#263238"></path><path d="M190.91,127.52a71.12,71.12,0,0,0,14.08-1,73.75,73.75,0,0,0,11.77-2.88l-4.92-13.6s-9.42,3.23-18,1.66c-.81.23-1.6.47-2.37.71Z" style="fill:#fff"></path><path d="M193.19,128.07c-.78,0-1.55,0-2.3,0l-.5,0,.64-15.92.33-.1c.77-.25,1.57-.49,2.38-.72l.12,0,.11,0c8.31,1.53,17.62-1.61,17.71-1.64l.47-.16L217.4,124l-.48.17a78.22,78.22,0,0,1-23.73,3.92Zm-1.76-1a72,72,0,0,0,13.48-1,73,73,0,0,0,11.21-2.71l-4.58-12.65c-2,.63-10.08,2.9-17.64,1.54l-1.9.57Z" style="fill:#263238"></path><path d="M186.31,69.08s-3.92,2.82-4.17,6,.74,16.47.74,16.47-2.82-3.92-3.52-.55.58,7.47,2.44,9.12a4.75,4.75,0,0,0,3.38,1.46s1.67,8.68,4.92,11.37,10.18,6.09,14.12,4.65,8.61-5.64,9.47-9.17a51.72,51.72,0,0,0,1.08-7.95s3-1.73,3.71-6.78.2-6-.86-5.79l-1.07.17A64.5,64.5,0,0,0,215.14,77c-1.14-4.25-1.18-6.84-5.81-9.51s-6.92-3.09-6.92-3.09,3.18-1.58.43-1.69a11.83,11.83,0,0,0-4.87.85s.89-2-1.85-1a9.32,9.32,0,0,0-4.22,3.12S188,66.92,186.31,69.08Z" style="fill:#fff"></path><path d="M202.1,118.46c-4,0-9.38-2.67-12.31-5.1s-4.64-9.48-5-11.25a5.86,5.86,0,0,1-3.3-1.59c-2.11-1.87-3.3-6.26-2.6-9.59.21-1,.64-1.61,1.29-1.74a2.6,2.6,0,0,1,2.11.94c-.25-3.58-.83-12.46-.63-15.06.25-3.22,3.79-5.95,4.32-6.35,1.57-2,4.87-3.24,5.63-3.51A9.85,9.85,0,0,1,196,62c1.16-.41,1.93-.39,2.36.08a1.08,1.08,0,0,1,.28.66,12.88,12.88,0,0,1,4.26-.58c.43,0,1.44.06,1.59.76.08.4-.18.83-.78,1.27A34.26,34.26,0,0,1,209.59,67c4.2,2.43,4.8,4.87,5.63,8.25.13.5.26,1,.41,1.58A60.77,60.77,0,0,1,217,87.53l.52-.08a1.3,1.3,0,0,1,1.17.31c.57.56.83,1.8.26,6-.6,4.47-2.95,6.46-3.71,7a50.23,50.23,0,0,1-1.09,7.79c-.93,3.85-5.9,8.1-9.77,9.52A6.77,6.77,0,0,1,202.1,118.46Zm-16.52-17.39.09.45c0,.08,1.68,8.53,4.75,11.07,3.27,2.71,10,5.89,13.63,4.57s8.32-5.38,9.15-8.82a50.13,50.13,0,0,0,1.07-7.86l0-.27.24-.14c.11-.06,2.82-1.69,3.45-6.41.51-3.81.3-4.92,0-5.18,0,0-.08-.08-.32,0l-1.62.26,0-.57a64.11,64.11,0,0,0-1.39-11c-.15-.56-.28-1.09-.41-1.59-.83-3.37-1.33-5.41-5.16-7.62-4.47-2.58-6.74-3-6.77-3l-1.46-.28,1.33-.66a5.53,5.53,0,0,0,1.1-.7l-.47,0a11.52,11.52,0,0,0-4.64.8l-1.19.53.53-1.19a.88.88,0,0,0,.07-.54s-.24-.19-1.3.18a9,9,0,0,0-4,2.94l-.09.13-.16.06s-3.82,1.26-5.35,3.28l-.1.1s-3.74,2.72-4,5.66c-.25,3.13.72,16.26.73,16.39l.14,1.77-1-1.44c-.56-.78-1.6-1.82-2.11-1.7-.21,0-.4.39-.51,1-.69,3.29.65,7.19,2.28,8.64a4.35,4.35,0,0,0,3,1.35Z" style="fill:#263238"></path><path d="M214.61,90.59l1.94-2.48A64.5,64.5,0,0,0,215.14,77c-1.14-4.25-1.18-6.84-5.81-9.51s-6.92-3.09-6.92-3.09,3.18-1.58.43-1.69a11.83,11.83,0,0,0-4.87.85s.89-2-1.85-1a9.32,9.32,0,0,0-4.22,3.12s-3.94,1.29-5.59,3.45c0,0-3.92,2.82-4.17,6s.74,16.47.74,16.47,1.85,1,1.51-.48-1.1-2.12-.5-3,2-1.4,1.94-2.63-1.48-5.92-.3-8.54S196,71.82,196,71.82l3.24,2.24,2.09-2.63,1.56,2,2.41-2.18a23.09,23.09,0,0,1,2.93,2.09c1.86,1.49,4,3.74,4,4.66s-.84,4.74.26,6.25a18.42,18.42,0,0,1,1.89,3.63Z" style="fill:#263238"></path><path d="M184,92.42a3.12,3.12,0,0,1-1.32-.4l-.23-.14,0-.26c0-.55-1-13.34-.74-16.55s3.79-5.95,4.32-6.35c1.57-2,4.87-3.24,5.63-3.51A9.85,9.85,0,0,1,196,62c1.16-.41,1.93-.39,2.36.08a1.08,1.08,0,0,1,.28.66,12.88,12.88,0,0,1,4.26-.58c.43,0,1.44.06,1.59.76.08.4-.18.83-.78,1.27A34.26,34.26,0,0,1,209.59,67c4.2,2.43,4.8,4.87,5.63,8.25.13.5.26,1,.41,1.58a63.6,63.6,0,0,1,1.42,11.22v.19l-2.86,3.63-.28-4a17.69,17.69,0,0,0-1.81-3.45c-1-1.31-.65-3.85-.45-5.53a10,10,0,0,0,.1-1c0-.55-1.7-2.54-3.86-4.28a27.26,27.26,0,0,0-2.56-1.86l-2.53,2.28-1.5-1.88-2,2.5-3.44-2.37c-2.66.73-9,2.82-9.89,4.73s-.25,4.85.09,6.68a14,14,0,0,1,.25,1.65,2.8,2.8,0,0,1-1.26,2.12,3.7,3.7,0,0,0-.76.78c-.24.37-.16.6.11,1.27a7.39,7.39,0,0,1,.46,1.4c.16.72-.08,1.08-.32,1.25A1,1,0,0,1,184,92.42Zm-.6-1.16a1.88,1.88,0,0,0,.59.17h0s0-.11,0-.23A7.82,7.82,0,0,0,183.5,90a4.89,4.89,0,0,1-.3-.86C183.27,90.1,183.33,90.87,183.35,91.26ZM205.21,70.6l.31.17a22.82,22.82,0,0,1,3,2.14s4.2,3.4,4.23,5a11.34,11.34,0,0,1-.1,1.15c-.16,1.34-.46,3.83.26,4.82a18.88,18.88,0,0,1,2,3.75l0,.14.1,1.45L216,88a62.3,62.3,0,0,0-1.38-10.83c-.15-.56-.28-1.09-.41-1.59-.83-3.37-1.33-5.41-5.16-7.62-4.47-2.58-6.74-3-6.77-3l-1.46-.28,1.33-.66a5.53,5.53,0,0,0,1.1-.7l-.47,0a11.52,11.52,0,0,0-4.64.8l-1.19.53.53-1.19a.88.88,0,0,0,.07-.54s-.24-.19-1.3.18a8.78,8.78,0,0,0-4,2.94l-.1.14-.16,0s-3.82,1.26-5.35,3.28l-.1.1s-3.74,2.72-4,5.66c-.17,2.2.26,9.37.53,13.46a1.84,1.84,0,0,1,.29-.83,5,5,0,0,1,.95-1c.57-.5.92-.83.92-1.35A14.29,14.29,0,0,0,185.1,84c-.38-2.07-1-5.2,0-7.27,1.24-2.76,9.81-5.09,10.78-5.34l.22-.06,3.05,2.1,2.19-2.76,1.62,2Z" style="fill:#263238"></path><path d="M194.63,91.69a1.16,1.16,0,1,1-1.15-1.43A1.32,1.32,0,0,1,194.63,91.69Z" style="fill:#263238"></path><path d="M205.77,91.5a1.16,1.16,0,1,1-1.15-1.42A1.31,1.31,0,0,1,205.77,91.5Z" style="fill:#263238"></path><path d="M199.44,100.81A4.48,4.48,0,0,1,195.86,99l.83-.55a3.45,3.45,0,0,0,2.81,1.4,5,5,0,0,0,3-1l.67.74a5.82,5.82,0,0,1-3.66,1.26Z" style="fill:#263238"></path><path d="M199.73,105.76a15.12,15.12,0,0,1-6.51-1.55l.48-.89c.06,0,6.43,3.36,12-.33l.56.83A11.63,11.63,0,0,1,199.73,105.76Z" style="fill:#263238"></path><path d="M190.32,88.94l-.64-.76c.1-.09,2.67-2.18,7.32-.83l-.28,1C192.61,87.11,190.41,88.87,190.32,88.94Z" style="fill:#263238"></path><path d="M208.66,88.07c-4.43-2.54-6-.57-6.07-.49l-.81-.59c.09-.11,2.12-2.8,7.38.21Z" style="fill:#263238"></path><path d="M122.58,193s-6.49-9.49-11.45-13.39-10.39-4.35-13.43-2-16,16.93-18.79,23.68S75.6,220.2,79.37,229s9.1,13.61,14,13.35,5.17-4.44,4.78-6.42-4.09-6.45-4.09-6.45l-.82-5.6s3.37,6.64,5.52,5.16,2.22-7.64,1.46-10.17a18.54,18.54,0,0,0-1.52-3.77S112.35,197.86,122.58,193Z" style="fill:#92E3A9"></path><path d="M93,242.87c-5.14,0-10.37-5.07-14-13.66-3.84-9-3.25-21.33-.47-28.09s15.93-21.47,19-23.87c3.4-2.69,9.18-1.89,14,1.95s11.29,13.11,11.56,13.49l.33.49-.53.25C113.46,197.88,101,213,99.29,215.16a21,21,0,0,1,1.39,3.58c.74,2.42.88,9-1.65,10.72a1.71,1.71,0,0,1-1.43.24c-1.26-.32-2.57-1.92-3.51-3.34l.43,2.92c.59.72,3.72,4.63,4.11,6.56a6.46,6.46,0,0,1-1,5.06,5.52,5.52,0,0,1-4.25,2Zm9.39-66.21A6.9,6.9,0,0,0,98,178c-3,2.36-15.89,16.81-18.64,23.48s-3.28,18.57.46,27.3c3.55,8.31,8.72,13.3,13.5,13.05a4.51,4.51,0,0,0,3.51-1.58,5.46,5.46,0,0,0,.81-4.24c-.31-1.53-3-5-4-6.23l-.09-.11-1.28-8.76,1.38,2.72c.65,1.28,2.67,4.69,4.17,5.07a.73.73,0,0,0,.62-.09c1.9-1.31,2-7.17,1.27-9.61a18.51,18.51,0,0,0-1.47-3.67l-.17-.29.21-.27c.55-.7,13.39-16.83,23.54-22-1.38-2-6.81-9.49-11-12.81A14.19,14.19,0,0,0,102.35,176.66Z" style="fill:#263238"></path><rect x="169.07" y="160.37" width="54.39" height="34.66" rx="2.23" transform="translate(-2.96 3.32) rotate(-0.96)" style="fill:#92E3A9"></rect><path d="M171.56,195.94a2.73,2.73,0,0,1-2.73-2.69l-.51-30.19a2.69,2.69,0,0,1,.77-1.94,2.67,2.67,0,0,1,1.91-.83l49.93-.84a2.78,2.78,0,0,1,2.78,2.68l.5,30.19a2.73,2.73,0,0,1-2.68,2.78l-49.93.84ZM221,160.45h0l-49.93.84a1.72,1.72,0,0,0-1.7,1.76l.51,30.19a1.72,1.72,0,0,0,.52,1.21,1.61,1.61,0,0,0,1.24.49l49.92-.84a1.73,1.73,0,0,0,1.7-1.76l-.5-30.19a1.77,1.77,0,0,0-.53-1.22A1.74,1.74,0,0,0,221,160.45Z" style="fill:#263238"></path><rect x="201.27" y="164.16" width="17.8" height="19.87" transform="translate(-2.89 3.55) rotate(-0.96)" style="fill:#92E3A9"></rect><path d="M201,184.69l-.35-20.87,18.79-.32.35,20.87Zm.67-19.89.31,18.87,16.8-.28-.32-18.87Z" style="fill:#263238"></path><ellipse cx="210.07" cy="174.1" rx="6.66" ry="7.31" transform="translate(-2.9 3.56) rotate(-0.96)" style="fill:#92E3A9"></ellipse><path d="M210.09,181.92c-3.9,0-7.11-3.43-7.18-7.69s3.08-7.87,7-7.94,7.21,3.39,7.29,7.69-3.08,7.87-7,7.94Zm0-14.63H210c-3.39.06-6.1,3.16-6,6.92s2.88,6.77,6.27,6.71,6.11-3.16,6-6.92S213.4,167.29,210.05,167.29Z" style="fill:#263238"></path><path d="M205.3,150.07c.07,4-2.85,7.36-6.53,7.43s-6.71-3.17-6.78-7.21,2.86-7.36,6.54-7.42S205.24,146,205.3,150.07Z" style="fill:#263238"></path><path d="M198.67,158a6.88,6.88,0,0,1-5-2.22,8.34,8.34,0,0,1-.18-11,6.74,6.74,0,0,1,10.15-.17,8.35,8.35,0,0,1,.19,11,6.89,6.89,0,0,1-5,2.39Zm0-14.63h-.1a5.83,5.83,0,0,0-4.3,2,7.33,7.33,0,0,0,.16,9.67,5.91,5.91,0,0,0,4.37,1.91,5.84,5.84,0,0,0,4.31-2.06,7.35,7.35,0,0,0-.17-9.67A5.83,5.83,0,0,0,198.63,143.37Z" style="fill:#263238"></path><rect x="172.74" y="178.84" width="9.86" height="6.08" transform="translate(-3.03 3.01) rotate(-0.96)" style="fill:#263238"></rect><path d="M172.3,185.51l-.12-7.08,10.86-.18.12,7.08Zm.9-6.09.08,5.08,8.87-.15-.09-5.08Z" style="fill:#263238"></path><rect x="177.88" y="178.82" width="1.88" height="6.08" transform="translate(-3.03 3.03) rotate(-0.96)" style="fill:#fff"></rect><path d="M177.44,185.43l-.12-7.08,2.88,0,.12,7.08Zm.9-6.1.09,5.08h.87l-.08-5.08Z" style="fill:#263238"></path><rect x="187.04" y="178.6" width="9.86" height="6.08" transform="translate(-3.02 3.25) rotate(-0.96)" style="fill:#263238"></rect><path d="M186.6,185.27l-.12-7.08,10.86-.18.12,7.08Zm.9-6.09.08,5.08,8.86-.15-.08-5.08Z" style="fill:#263238"></path><rect x="192.18" y="178.58" width="1.88" height="6.08" transform="translate(-3.02 3.27) rotate(-0.96)" style="fill:#fff"></rect><path d="M191.74,185.19l-.12-7.08,2.88-.05.12,7.08Zm.9-6.1.09,5.08h.87l-.08-5.08Z" style="fill:#263238"></path><rect x="172.6" y="170.27" width="9.86" height="6.08" transform="translate(-2.89 3.01) rotate(-0.96)" style="fill:#263238"></rect><path d="M172.16,176.94l-.12-7.08,10.86-.19.12,7.09Zm.89-6.1.09,5.08,8.86-.15-.08-5.08Z" style="fill:#263238"></path><rect x="177.74" y="170.25" width="1.88" height="6.08" transform="translate(-2.89 3.03) rotate(-0.96)" style="fill:#fff"></rect><path d="M177.3,176.85l-.12-7.08,2.88-.05.12,7.08Zm.9-6.1.08,5.08h.88l-.09-5.08Z" style="fill:#263238"></path><rect x="186.9" y="170.03" width="9.86" height="6.08" transform="translate(-2.88 3.25) rotate(-0.96)" style="fill:#263238"></rect><path d="M186.46,176.7l-.12-7.08,10.86-.19.12,7.09Zm.89-6.1.09,5.08,8.86-.15-.09-5.08Z" style="fill:#263238"></path><rect x="192.04" y="170.01" width="1.88" height="6.08" transform="translate(-2.88 3.26) rotate(-0.96)" style="fill:#fff"></rect><path d="M191.6,176.61l-.12-7.08,2.88-.05.12,7.08Zm.9-6.1.08,5.08h.88l-.09-5.08Z" style="fill:#263238"></path><rect x="172.88" y="187.39" width="9.86" height="6.08" transform="translate(-3.17 3.01) rotate(-0.96)" style="fill:#263238"></rect><path d="M172.44,194.06l-.11-7.08,10.86-.18.12,7.08Zm.9-6.1.09,5.08,8.86-.14-.09-5.09Z" style="fill:#263238"></path><rect x="178.03" y="187.37" width="1.88" height="6.08" transform="translate(-3.18 3.04) rotate(-0.96)" style="fill:#fff"></rect><path d="M177.59,194l-.12-7.09,2.87,0,.12,7.08Zm.89-6.1.09,5.08.88,0-.09-5.08Z" style="fill:#263238"></path><rect x="187.18" y="187.09" width="16.77" height="6.08" transform="translate(-3.17 3.31) rotate(-0.96)" style="fill:#263238"></rect><path d="M186.74,193.82l-.12-7.08,17.77-.3.12,7.08Zm.9-6.1.09,5.08,15.76-.26-.08-5.08Z" style="fill:#263238"></path><rect x="192.33" y="187.13" width="1.88" height="6.08" transform="translate(-3.16 3.27) rotate(-0.96)" style="fill:#fff"></rect><path d="M191.89,193.73l-.12-7.08,2.87,0,.12,7.08Zm.89-6.09.09,5.08.88,0-.09-5.08Z" style="fill:#263238"></path><path d="M252,219.35,160,220.89a2,2,0,0,1-2-1.91l-.32-19.15a2,2,0,0,1,1.92-2L256,196.23Z" style="fill:#263238"></path><path d="M159.92,221.39a2.46,2.46,0,0,1-2.45-2.4l-.32-19.15a2.46,2.46,0,0,1,2.41-2.49l97.08-1.63-4.21,24.12L160,221.39Zm95.53-24.65-95.88,1.61a1.49,1.49,0,0,0-1,.44,1.44,1.44,0,0,0-.41,1l.32,19.14a1.45,1.45,0,0,0,1.47,1.42l91.65-1.54Z" style="fill:#263238"></path><path d="M142.37,431.91a7.07,7.07,0,0,0,2.47,5.72,6.64,6.64,0,0,0,5.89,1.58s3.67,2.17,5.06,1.87l4.17-.91a7.68,7.68,0,0,0,6.7-.11,17.24,17.24,0,0,0,5.79-4s3.36.22,4.74-.92a18.82,18.82,0,0,0,2.74-3.11,18.33,18.33,0,0,0,5.56-.93,11.81,11.81,0,0,0,3.58-2.86,5.84,5.84,0,0,0,3.31-2.56c1.09-2-2.06-6.67-2.06-6.67Z" style="fill:#263238"></path><path d="M155.5,441.6c-1.49,0-4-1.37-4.85-1.86a7.16,7.16,0,0,1-6.14-1.73,7.53,7.53,0,0,1-2.64-6.15l0-.34,48.62-13.1.2.3c.34.51,3.29,5,2.09,7.19a6.28,6.28,0,0,1-3.46,2.76,12.06,12.06,0,0,1-3.66,2.87,17.46,17.46,0,0,1-5.51,1,17.69,17.69,0,0,1-2.69,3c-1.29,1.07-4,1.07-4.83,1a18.48,18.48,0,0,1-5.81,3.95,8.28,8.28,0,0,1-7,.19l-4,.87A2.38,2.38,0,0,1,155.5,441.6Zm-4.7-2.93.19.11c1.35.8,3.82,2,4.69,1.81l4.36-.95.17.1a7.14,7.14,0,0,0,6.24-.14,17,17,0,0,0,5.62-3.87l.17-.19h.25c.88.06,3.38,0,4.38-.8a17.81,17.81,0,0,0,2.64-3l.15-.21h.26a17.93,17.93,0,0,0,5.37-.89,11.59,11.59,0,0,0,3.4-2.71l.1-.13.15,0a5.34,5.34,0,0,0,3-2.33c.65-1.17-.72-4.08-1.84-5.84L142.85,432.3a6.58,6.58,0,0,0,2.32,4.95,6.11,6.11,0,0,0,5.42,1.48Z" style="fill:#263238"></path><path d="M160.69,404.05s1,7.67.57,8.32-2.95,2.4-9.73,5.5-10.3,10.22-9.16,14,7.6,7.56,15.91,6.57,14.46-4.09,17.41-6.49,11-4.45,13.77-6.85,2.89-6,2.84-9-.22-12.6-.22-12.6S171.21,407.08,160.69,404.05Z" style="fill:#263238"></path><path d="M155.54,439.15c-7.21,0-12.57-3.43-13.65-7.1-1.25-4.2,2.6-11.51,9.43-14.63,8.55-3.91,9.49-5.26,9.52-5.32a53.67,53.67,0,0,0-.64-8l-.1-.75.73.21c10.29,3,31-.5,31.17-.54l.57-.1.23,13.18c0,3.47-.27,7-3,9.41-1.46,1.27-4.19,2.39-7.09,3.57-2.61,1.06-5.3,2.16-6.7,3.29-3.12,2.54-9.4,5.61-17.66,6.6A24.72,24.72,0,0,1,155.54,439.15Zm5.74-34.42c.43,3.42.8,7.29.4,7.91-.65,1-4.28,3.1-9.94,5.69-6.28,2.87-10,9.7-8.89,13.44s7.55,7.15,15.37,6.21c8.05-1,14.14-3.92,17.15-6.37,1.51-1.23,4.28-2.36,6.95-3.45s5.48-2.23,6.81-3.4c2.56-2.24,2.72-5.63,2.67-8.63l-.21-12C188.18,404.66,171.08,407.18,161.28,404.73Z" style="fill:#263238"></path><path d="M194.5,369.52s-3.61.92-15.14,1.54-23.33-3.24-23.93-.88,2.32,24.09,2.4,28.58.77,7.89,10.41,9.44,18.17,1,21.78-.58,5.9-4.37,6.06-7.79,0-23.5.19-26.71S194.5,369.52,194.5,369.52Z" style="fill:#92E3A9"></path><path d="M179.22,409.61a70.39,70.39,0,0,1-11.06-.92c-9.91-1.59-10.75-5.27-10.83-9.92,0-1.81-.54-6.56-1.08-11.58-1-9.17-1.66-15.76-1.31-17.14.42-1.64,3.42-1.25,8.85-.52a84.36,84.36,0,0,0,15.55,1c11.3-.61,15-1.51,15-1.52l.11,0,.11,0c.1,0,2.35.52,2.17,4.12-.08,1.6-.09,7.57-.1,13.35s0,11.64-.09,13.35c-.16,3.55-2.48,6.55-6.36,8.23C188.16,409,184.27,409.61,179.22,409.61ZM157.48,369.9c-.9,0-1.49.11-1.57.4-.33,1.31.59,9.89,1.33,16.78.55,5.05,1.06,9.82,1.09,11.67.07,4.45.81,7.48,10,8.95,10.13,1.63,18.25.86,21.5-.54,3.52-1.52,5.62-4.2,5.76-7.36.08-1.69.09-7.59.09-13.3s0-11.78.1-13.4c.12-2.34-1-2.94-1.28-3.06-.77.17-4.74,1-15.1,1.52a84.34,84.34,0,0,1-15.73-1A55.86,55.86,0,0,0,157.48,369.9Z" style="fill:#263238"></path><path d="M245.08,437.9s.65,5.57-.43,7.82-2.48,2-2.48,2a14.66,14.66,0,0,1-2.18,2.66c-1.65,1.7-5-.16-5-.16a12.38,12.38,0,0,1-4.4,2.93,4.65,4.65,0,0,1-4.21-.42l-2.5.61c-2.51.6-5.32-1-5.32-1l-3.09-.79c-3.08-.78-1.77-5.83-1.77-5.83Z" style="fill:#263238"></path><path d="M222.65,454a9.89,9.89,0,0,1-4.32-1.19l-3-.77a2.91,2.91,0,0,1-1.83-1.36c-1.12-1.9-.34-5-.31-5.09l.08-.28,32.26-8,.06.56c0,.24.66,5.74-.47,8.1-.9,1.89-2.07,2.24-2.66,2.28a17.7,17.7,0,0,1-2.09,2.51c-1.58,1.63-4.33.55-5.3.1a12.7,12.7,0,0,1-4.33,2.8,5.25,5.25,0,0,1-4.47-.36l-2.3.55A5.76,5.76,0,0,1,222.65,454Zm-8.57-7.87c-.15.75-.47,2.79.27,4a1.86,1.86,0,0,0,1.2.9l3.21.83s2.69,1.53,5,1l2.73-.66.19.15a4.14,4.14,0,0,0,3.74.34,12,12,0,0,0,4.2-2.8l.26-.28.35.18s3.08,1.66,4.44.25a14.37,14.37,0,0,0,2.1-2.55l.18-.31.35.06s1.06.11,1.94-1.72.56-5.54.43-7Z" style="fill:#263238"></path><path d="M216.53,409.31l1.28,7.63S210.69,443.4,215,448s14.16,3.57,19.91,2.19a12.4,12.4,0,0,0,9.66-9.35c1.21-4.29,2.8-11.58,2.71-17.13s.17-15.38.17-15.38S225.53,411.08,216.53,409.31Z" style="fill:#263238"></path><path d="M225.53,451.9c-4,0-8.27-.79-10.86-3.53-4.39-4.67,2.07-29.36,2.63-31.45l-1.38-8.24.71.14c8.82,1.73,30.58-.93,30.79-1l.58-.07v.58c0,.1-.26,9.89-.17,15.36.09,5.31-1.35,12.4-2.72,17.28a13,13,0,0,1-10,9.7A43.41,43.41,0,0,1,225.53,451.9Zm-8.39-42,1.18,7.05,0,.1c-2,7.29-6.3,27-2.89,30.61,3.8,4,12.53,3.71,19.43,2.06a11.9,11.9,0,0,0,9.3-9c1.36-4.81,2.77-11.8,2.69-17-.08-4.73.1-12.63.15-14.83C243.48,409.34,225.72,411.31,217.14,409.92Z" style="fill:#263238"></path><path d="M208.47,374.41s1.55,28.6,2.47,32.64,7.36,6.07,14.21,6.6,15.16,0,19.83-1.62,6.33-5,6.27-8.43-1.47-30.51-.79-31.49-4-1.75-4-1.75-16.2,1.77-25.83.65-11.56-1.31-12.4-.44S208.47,374.41,208.47,374.41Z" style="fill:#92E3A9"></path><path d="M230.34,414.34c-1.76,0-3.52-.06-5.23-.19-4-.31-13.43-1.61-14.66-7-.9-4-2.37-30.68-2.48-32.64-.25-.69-1.11-3.29-.14-4.29s2.72-.9,12.81.28c9.47,1.1,25.56-.63,25.73-.65h.06l.07,0c1.49.24,4.06.79,4.46,1.73a.82.82,0,0,1-.09.8c-.38,1.12.3,17,.62,24.59.14,3.18.25,5.7.26,6.6.07,4.23-2.34,7.48-6.61,8.92C241.68,413.67,236.05,414.34,230.34,414.34Zm-20-43.81c-1,0-1.55.13-1.81.39-.4.42,0,2.2.39,3.32l0,.15c0,.28,1.56,28.6,2.46,32.55.75,3.28,5.89,5.6,13.76,6.21,7.15.55,15.22-.11,19.64-1.59,5.24-1.77,6-5.74,5.92-7.95,0-.89-.12-3.4-.26-6.58-.76-17.86-.89-24-.5-25.09a10.75,10.75,0,0,0-3.58-1.08c-1.17.13-16.62,1.72-25.88.64C215.09,370.87,212.05,370.53,210.36,370.53Z" style="fill:#263238"></path><path d="M111.13,179.59c-4.95-3.9-10.39-4.35-13.43-2a105.43,105.43,0,0,0-10.58,11.54c5.81.65,15.23,3.23,24.16,12.23,3.7-3.48,7.71-6.72,11.3-8.43C122.58,193,116.09,183.49,111.13,179.59Z" style="fill:#263238"></path><path d="M111.27,202.11l-.34-.35c-8.68-8.74-17.77-11.4-23.86-12.09l-.91-.1.57-.71a102.5,102.5,0,0,1,10.66-11.61c3.4-2.69,9.18-1.89,14,1.95s11.29,13.11,11.56,13.49l.33.49-.53.25c-3.11,1.48-6.87,4.29-11.18,8.34ZM88.08,188.79c6.15.86,14.86,3.66,23.21,11.92a49.55,49.55,0,0,1,10.55-7.92c-1.38-2-6.81-9.49-11-12.81h0c-4.5-3.55-9.77-4.35-12.81-1.95A101.43,101.43,0,0,0,88.08,188.79Z" style="fill:#263238"></path><polygon points="95.5 251.01 154.64 257.98 154.93 253.63 96.52 247.19 95.5 251.01" style="fill:#9e9e9e"></polygon><path d="M155.1,258.54l-.52-.06-59.72-7,1.28-4.79,59.32,6.54Zm-59-8,58.05,6.85.22-3.35-57.51-6.34Z" style="fill:#263238"></path><path d="M160,226.81C159,235,157.66,244,157.66,244a23.07,23.07,0,0,1-.81,5.27,39.17,39.17,0,0,1-1.92,4.37l-58.41-6.44,1.57-3.46a7.28,7.28,0,0,1-.77-2.71c0-1.27.59-18.48,2.8-27.39s7.38-13.34,13.47-16.88,15.12-5.51,28.95-1.57,18,14.9,18.43,19.42c.18,1.8-.31,6.82-1,12.21" style="fill:#fff"></path><path d="M155.21,254.17l-.34,0-59.09-6.52,1.76-3.88a7.4,7.4,0,0,1-.72-2.7c0-1.17.56-18.43,2.81-27.52,2.35-9.47,8-13.86,13.71-17.19,7.64-4.44,17.51-5,29.34-1.62,13.72,3.9,18.29,14.69,18.79,19.86.15,1.58-.17,5.73-1,12.31h0c-1,8.08-2.33,17.11-2.34,17.2a22.78,22.78,0,0,1-.84,5.35,40,40,0,0,1-1.95,4.44Zm-57.95-7.4,57.38,6.33a36.1,36.1,0,0,0,1.73-4,22.58,22.58,0,0,0,.79-5.12c0-.14,1.38-9.16,2.35-17.22h0c1-8.11,1.07-11.06,1-12.1-.47-4.93-4.86-15.24-18.07-19-11.55-3.29-21.16-2.78-28.55,1.52-5.55,3.22-11,7.46-13.25,16.57C98.41,222.62,97.8,240,97.82,241a6.76,6.76,0,0,0,.71,2.48l.11.22Z" style="fill:#263238"></path><path d="M98.92,239.37s7.71,6.38,15.35,8.07,23,3.05,26.84,2.62,9-2.5,10.61-4.34,2.49-2.76,2.49-2.76,3.71-15.81,3.78-22.87-7.54-17.62-19-22.32-28.93,2.12-34.25,9.09S98.92,239.37,98.92,239.37Z" style="fill:#263238"></path><path d="M139.18,250.64a155,155,0,0,1-25-2.72c-7.67-1.68-15.24-7.91-15.56-8.17l-.18-.15v-.24c0-1.05.54-25.79,5.89-32.81s23.15-14,34.84-9.24,19.4,15.62,19.34,22.78-3.65,22.34-3.8,23l0,.13-.09.1s-.91.94-2.48,2.74c-1.81,2.08-7.26,4.1-10.93,4.51A17.49,17.49,0,0,1,139.18,250.64ZM99.43,239.13c1.21,1,8.17,6.32,14.94,7.82,7.45,1.64,22.95,3,26.68,2.62s8.82-2.49,10.29-4.18c1.31-1.5,2.14-2.39,2.41-2.67.36-1.55,3.68-16.05,3.74-22.64.06-6.83-7.45-17.24-18.72-21.85s-28.45,2.1-33.66,8.93C100.23,213.56,99.49,236.5,99.43,239.13Z" style="fill:#263238"></path><path d="M123.5,227.48c-9.26,9.89-16.87,12.85-22,13.45,2.79,2,7.9,5.21,13,6.33,7.53,1.66,22.72,3,26.46,2.59s8.89-2.47,10.47-4.28,2.45-2.72,2.45-2.72a191.43,191.43,0,0,0,3.55-19.61C147.54,219,133.81,216.47,123.5,227.48Z" style="fill:#fff;opacity:0.30000000000000004"></path><path d="M124.14,212.87a6.23,6.23,0,1,1-6.3-5.61A6,6,0,0,1,124.14,212.87Z" style="fill:#fff"></path><path d="M140.78,211.77a2.94,2.94,0,1,1-3-2.89A2.94,2.94,0,0,1,140.78,211.77Z" style="fill:#fff"></path><path d="M123.15,231.83a1.8,1.8,0,0,1-3.59.06,1.8,1.8,0,1,1,3.59-.06Z" style="fill:#fff"></path><path d="M239.18,126.89s-9.93,8.35-9.1,20.3S235,165.37,243.7,171.1l12.74,8.39s13.25,14.26,19.38,17.09,15.32-.47,20.63-8.74-3.36-25.13-7-28.84-11.9-9-11.9-9-4-13.78-12.08-19.31-18.44-11-22.37-7.39" style="fill:#92E3A9"></path><path d="M280.62,198.1a12,12,0,0,1-5-1.06c-6-2.8-18.54-16.14-19.5-17.17l-12.68-8.36c-9.29-6.11-13-12.7-13.85-24.28-.84-12.07,9.18-20.64,9.28-20.72l.65.76c-.1.08-9.73,8.34-8.93,19.89.78,11.23,4.41,17.6,13.4,23.52l12.73,8.39.09.08c.14.14,13.26,14.22,19.23,17,6.27,2.9,15.06-.86,20-8.56s-3-24.25-6.92-28.22c-3.55-3.64-11.74-8.92-11.82-9l-.16-.1-.05-.18c0-.14-4.06-13.68-11.88-19-10.87-7.46-18.8-10.17-21.75-7.44l-.68-.73c4.55-4.21,16.36,2.79,23,7.34,7.72,5.29,11.7,17.69,12.23,19.41,1.19.77,8.43,5.53,11.83,9,3.78,3.87,12.52,20.95,7.05,29.46C292.87,194.34,286.43,198.1,280.62,198.1Z" style="fill:#263238"></path><path d="M283.77,182.6s-7.29,3.06-10,6.46S248,229,247.22,230.43s-4.07,7.63-2.51,13.06a39.38,39.38,0,0,0,5.23,11.24c.85,1,6.14,3.26,9.71,3.62s7.36.71,10.89-1.45,5.39-4.07,3.88-6.36l-1.51-2.28s1.26-.44,2.46-4,2.39-7.6,2.39-7.6a106.77,106.77,0,0,0,17-11.82c8.48-7.28,16-23.15,15.34-36.36s-16.32-21.55-18-21.73" style="fill:#92E3A9"></path><path d="M263.75,259.12a39.59,39.59,0,0,1-4.15-.28c-3.57-.36-9-2.56-10.05-3.79a40.1,40.1,0,0,1-5.32-11.43c-1.44-5,1-10.57,2.55-13.43.95-1.73,24.09-38.2,26.64-41.44,2.72-3.46,9.86-6.49,10.16-6.61l.39.92c-.07,0-7.21,3.05-9.77,6.31s-25.6,39.58-26.54,41.3c-1.21,2.2-3.86,7.83-2.47,12.68a38.92,38.92,0,0,0,5.13,11.06c.71.86,5.83,3.08,9.38,3.44,3.35.34,7.16.72,10.58-1.37,2.6-1.59,3.87-2.81,4.12-4a2.11,2.11,0,0,0-.4-1.71L272.14,248l.61-.21h0s1.07-.52,2.14-3.72c1.18-3.54,2.37-7.54,2.39-7.58l.06-.2.18-.1a106.08,106.08,0,0,0,16.92-11.76c7.81-6.7,15.83-22.35,15.17-36-.62-12.7-15.78-21.06-17.55-21.26l.11-1c1.94.21,17.78,8.67,18.44,22.21.68,14.09-7.35,29.75-15.52,36.76A109.53,109.53,0,0,1,278.18,237c-.26.85-1.3,4.3-2.34,7.41a8.79,8.79,0,0,1-2.24,4l1.24,1.88a3.17,3.17,0,0,1,.54,2.48c-.32,1.45-1.69,2.82-4.58,4.58A13.06,13.06,0,0,1,263.75,259.12Z" style="fill:#263238"></path><path d="M251,163.22l-.85-.52c5-8.19,11.55-11.11,16.12-12.11l.22,1C262.13,152.53,255.89,155.33,251,163.22Z" style="fill:#263238"></path><path d="M269.15,151.18l-.07-1a9.73,9.73,0,0,1,1.08,0l-.05,1A7.68,7.68,0,0,0,269.15,151.18Z" style="fill:#263238"></path><path d="M260.42,132.39c4.57,3.15,6,9,3.18,13.1s-8.8,4.85-13.37,1.71-6-9-3.18-13.1S255.85,129.24,260.42,132.39Z" style="fill:#263238"></path><path d="M256.32,149.63a11.3,11.3,0,0,1-6.38-2,11.12,11.12,0,0,1-4.56-6.49,9,9,0,0,1,1.26-7.31c3-4.31,9.28-5.13,14.07-1.83h0c4.78,3.3,6.27,9.48,3.3,13.79A9.18,9.18,0,0,1,256.32,149.63Zm-2-18.68a8.2,8.2,0,0,0-6.87,3.43,8,8,0,0,0-1.1,6.5,10.06,10.06,0,0,0,4.15,5.9c4.34,3,10,2.28,12.68-1.57s1.28-9.42-3.05-12.41A10.32,10.32,0,0,0,254.33,131Z" style="fill:#263238"></path><path d="M282.83,171.86l-.71-.71a28.56,28.56,0,0,1,3.9-3.21l.56.83A26.44,26.44,0,0,0,282.83,171.86Z" style="fill:#263238"></path><path d="M274.31,189.11l-1-.1a32.27,32.27,0,0,1,6.19-14.86l.79.61A31.87,31.87,0,0,0,274.31,189.11Z" style="fill:#263238"></path><path d="M306.86,189.38c-4.13-8.62-13.27-5.4-13.66-5.26l-.34-.94c.1,0,10.39-3.66,14.9,5.77Z" style="fill:#263238"></path><path d="M284.14,179.92l-.75-.65c6.12-7.14,12.72-6.18,13-6.13l-.15,1C296.17,174.11,289.89,173.23,284.14,179.92Z" style="fill:#263238"></path><path d="M252.65,169.88l-1-.21a23.17,23.17,0,0,1,3-7.49l.85.53A22,22,0,0,0,252.65,169.88Z" style="fill:#263238"></path><path d="M256.9,160.74l-.78-.63a15,15,0,0,1,2.85-2.76l.55.84A13.52,13.52,0,0,0,256.9,160.74Z" style="fill:#263238"></path><path d="M289.27,213.8c-8.47-8.74-24.06-11.25-24.06-11.25l-.42.15c-7.55,11.74-17.05,26.79-17.57,27.73-.81,1.48-4.07,7.63-2.51,13.06a39.38,39.38,0,0,0,5.23,11.24c.85,1,6.14,3.26,9.71,3.62s7.36.71,10.89-1.45,5.39-4.07,3.88-6.36l-1.51-2.28s1.26-.44,2.46-4,2.39-7.6,2.39-7.6a106.77,106.77,0,0,0,17-11.82c.66-.58,1.32-1.22,2-1.89A62.16,62.16,0,0,0,289.27,213.8Z" style="fill:#92E3A9"></path><path d="M263.75,259.12a39.59,39.59,0,0,1-4.15-.28c-3.57-.36-9-2.56-10.05-3.79a40.1,40.1,0,0,1-5.32-11.43c-1.44-5,1-10.57,2.55-13.43.54-1,10.23-16.32,17.59-27.76l.09-.14.7-.26.13,0c.65.11,15.85,2.64,24.34,11.4a63.57,63.57,0,0,1,7.53,9.19l.22.34-.28.28c-.76.79-1.4,1.4-2,1.93A109.53,109.53,0,0,1,278.18,237c-.26.85-1.3,4.3-2.34,7.41a8.79,8.79,0,0,1-2.24,4l1.24,1.88a3.17,3.17,0,0,1,.54,2.48c-.32,1.45-1.69,2.82-4.58,4.58A13.06,13.06,0,0,1,263.75,259.12Zm1.37-56c-7.77,12.08-17,26.69-17.46,27.56-1.21,2.2-3.86,7.83-2.47,12.68a38.92,38.92,0,0,0,5.13,11.06c.71.86,5.83,3.08,9.38,3.44s7.16.72,10.58-1.37c2.6-1.59,3.87-2.81,4.12-4a2.11,2.11,0,0,0-.4-1.71L272.14,248l.61-.21h0s1.07-.52,2.14-3.72c1.18-3.54,2.37-7.54,2.39-7.58l.06-.2.18-.1a106.08,106.08,0,0,0,16.92-11.76c.51-.44,1.05-1,1.66-1.57a63.1,63.1,0,0,0-7.18-8.71c-7.87-8.11-22.17-10.82-23.66-11.09Z" style="fill:#263238"></path><path d="M265.21,202.55l-.42.15-7.16,11.19c7,1.24,19.48,5.27,27.26,18.37a104,104,0,0,0,9.88-7.45c.66-.58,1.32-1.22,2-1.89a62.16,62.16,0,0,0-7.47-9.12C280.8,205.06,265.21,202.55,265.21,202.55Z" style="fill:#263238"></path><path d="M284.73,233l-.27-.45c-7.72-13-20.18-16.94-26.91-18.13l-.74-.13.4-.64c2.36-3.71,4.85-7.6,7.16-11.19l.09-.14.7-.26.13,0c.65.11,15.85,2.64,24.34,11.4a63.57,63.57,0,0,1,7.53,9.19l.22.34-.28.28c-.76.79-1.4,1.4-2,1.93a106.2,106.2,0,0,1-9.92,7.49Zm-26.28-19.43c7,1.36,18.93,5.48,26.6,18a102.05,102.05,0,0,0,9.39-7.12c.51-.44,1.05-1,1.66-1.57a63.1,63.1,0,0,0-7.18-8.71c-7.87-8.11-22.17-10.82-23.66-11.09l-.14.05C263,206.46,260.66,210.07,258.45,213.54Z" style="fill:#263238"></path><path d="M268.9,253.73l-.3-.95a5.52,5.52,0,0,0,3.82-4.57l1,.09A6.48,6.48,0,0,1,268.9,253.73Z" style="fill:#263238"></path><path d="M275.68,233.27a17.92,17.92,0,0,0-15.07-8.56l-.07-1a18.84,18.84,0,0,1,16,9Z" style="fill:#263238"></path><path d="M270.21,225.33a12,12,0,0,0-5.89-2.94l.12-1a13,13,0,0,1,6.43,3.19Z" style="fill:#263238"></path><path d="M95,210.06c-4.4-7.42-9.14-6.87-9.34-6.84l-.14-1c.22,0,5.57-.72,10.34,7.31Z" style="fill:#263238"></path></g></svg>